<mxfile host="app.diagrams.net" modified="2023-09-06T19:45:09.852Z" agent="Mozilla/5.0 (Windows NT 10.0; Win64; x64) AppleWebKit/537.36 (KHTML, like Gecko) Chrome/116.0.0.0 Safari/537.36" etag="Q2p8iiNM2f4WdhoZr06n" version="21.7.2" type="github">
  <diagram name="PÃ¡gina-1" id="PRf4Y9WJquOJabTDBx_V">
    <mxGraphModel dx="978" dy="522" grid="1" gridSize="10" guides="1" tooltips="1" connect="1" arrows="1" fold="1" page="1" pageScale="1" pageWidth="827" pageHeight="1169" math="0" shadow="0">
      <root>
        <mxCell id="0" />
        <mxCell id="1" parent="0" />
        <mxCell id="-YbSp8soPqtQhwY1fTOR-11" value="CLIENTE" style="swimlane;fontStyle=1;align=center;verticalAlign=top;childLayout=stackLayout;horizontal=1;startSize=26;horizontalStack=0;resizeParent=1;resizeParentMax=0;resizeLast=0;collapsible=1;marginBottom=0;whiteSpace=wrap;html=1;" vertex="1" parent="1">
          <mxGeometry x="90" y="80" width="150" height="160" as="geometry" />
        </mxCell>
        <mxCell id="-YbSp8soPqtQhwY1fTOR-15" value="idCliente: intereger&lt;br&gt;nome: String&lt;br&gt;email: String&lt;br&gt;dataNascimento: Date" style="text;html=1;align=center;verticalAlign=middle;resizable=0;points=[];autosize=1;strokeColor=none;fillColor=none;" vertex="1" parent="-YbSp8soPqtQhwY1fTOR-11">
          <mxGeometry y="26" width="150" height="70" as="geometry" />
        </mxCell>
        <mxCell id="-YbSp8soPqtQhwY1fTOR-13" value="" style="line;strokeWidth=1;fillColor=none;align=left;verticalAlign=middle;spacingTop=-1;spacingLeft=3;spacingRight=3;rotatable=0;labelPosition=right;points=[];portConstraint=eastwest;strokeColor=inherit;" vertex="1" parent="-YbSp8soPqtQhwY1fTOR-11">
          <mxGeometry y="96" width="150" height="24" as="geometry" />
        </mxCell>
        <mxCell id="-YbSp8soPqtQhwY1fTOR-16" value="validaridade()&lt;br&gt;obterDetalhes()" style="text;html=1;align=center;verticalAlign=middle;resizable=0;points=[];autosize=1;strokeColor=none;fillColor=none;" vertex="1" parent="-YbSp8soPqtQhwY1fTOR-11">
          <mxGeometry y="120" width="150" height="40" as="geometry" />
        </mxCell>
        <mxCell id="-YbSp8soPqtQhwY1fTOR-19" value="COMPRA" style="swimlane;fontStyle=1;align=center;verticalAlign=top;childLayout=stackLayout;horizontal=1;startSize=26;horizontalStack=0;resizeParent=1;resizeParentMax=0;resizeLast=0;collapsible=1;marginBottom=0;whiteSpace=wrap;html=1;" vertex="1" parent="1">
          <mxGeometry x="515" y="40" width="150" height="180" as="geometry" />
        </mxCell>
        <mxCell id="-YbSp8soPqtQhwY1fTOR-20" value="idCliente: intereger&lt;br&gt;cliente: Cliente&lt;br&gt;produtos: List&amp;lt;Produto&amp;gt;&lt;br&gt;dataComprar: Date&lt;br&gt;total: Float" style="text;html=1;align=center;verticalAlign=middle;resizable=0;points=[];autosize=1;strokeColor=none;fillColor=none;" vertex="1" parent="-YbSp8soPqtQhwY1fTOR-19">
          <mxGeometry y="26" width="150" height="90" as="geometry" />
        </mxCell>
        <mxCell id="-YbSp8soPqtQhwY1fTOR-21" value="" style="line;strokeWidth=1;fillColor=none;align=left;verticalAlign=middle;spacingTop=-1;spacingLeft=3;spacingRight=3;rotatable=0;labelPosition=right;points=[];portConstraint=eastwest;strokeColor=inherit;" vertex="1" parent="-YbSp8soPqtQhwY1fTOR-19">
          <mxGeometry y="116" width="150" height="24" as="geometry" />
        </mxCell>
        <mxCell id="-YbSp8soPqtQhwY1fTOR-22" value="validaridade()&lt;br&gt;obterDetalhes()" style="text;html=1;align=center;verticalAlign=middle;resizable=0;points=[];autosize=1;strokeColor=none;fillColor=none;" vertex="1" parent="-YbSp8soPqtQhwY1fTOR-19">
          <mxGeometry y="140" width="150" height="40" as="geometry" />
        </mxCell>
        <mxCell id="-YbSp8soPqtQhwY1fTOR-23" value="CARRINHO" style="swimlane;fontStyle=1;align=center;verticalAlign=top;childLayout=stackLayout;horizontal=1;startSize=26;horizontalStack=0;resizeParent=1;resizeParentMax=0;resizeLast=0;collapsible=1;marginBottom=0;whiteSpace=wrap;html=1;" vertex="1" parent="1">
          <mxGeometry x="90" y="280" width="155" height="170" as="geometry" />
        </mxCell>
        <mxCell id="-YbSp8soPqtQhwY1fTOR-24" value="idCompra: List&amp;lt;Produto&amp;gt;&lt;br&gt;idProduto: intereger&lt;br&gt;total: Float" style="text;html=1;align=center;verticalAlign=middle;resizable=0;points=[];autosize=1;strokeColor=none;fillColor=none;" vertex="1" parent="-YbSp8soPqtQhwY1fTOR-23">
          <mxGeometry y="26" width="155" height="60" as="geometry" />
        </mxCell>
        <mxCell id="-YbSp8soPqtQhwY1fTOR-25" value="" style="line;strokeWidth=1;fillColor=none;align=left;verticalAlign=middle;spacingTop=-1;spacingLeft=3;spacingRight=3;rotatable=0;labelPosition=right;points=[];portConstraint=eastwest;strokeColor=inherit;" vertex="1" parent="-YbSp8soPqtQhwY1fTOR-23">
          <mxGeometry y="86" width="155" height="24" as="geometry" />
        </mxCell>
        <mxCell id="-YbSp8soPqtQhwY1fTOR-26" value="adicionaritem()&lt;br&gt;removeritem()&lt;br&gt;calcularTotal" style="text;html=1;align=center;verticalAlign=middle;resizable=0;points=[];autosize=1;strokeColor=none;fillColor=none;" vertex="1" parent="-YbSp8soPqtQhwY1fTOR-23">
          <mxGeometry y="110" width="155" height="60" as="geometry" />
        </mxCell>
        <mxCell id="-YbSp8soPqtQhwY1fTOR-27" value="PRODUTO" style="swimlane;fontStyle=1;align=center;verticalAlign=top;childLayout=stackLayout;horizontal=1;startSize=26;horizontalStack=0;resizeParent=1;resizeParentMax=0;resizeLast=0;collapsible=1;marginBottom=0;whiteSpace=wrap;html=1;" vertex="1" parent="1">
          <mxGeometry x="510" y="320" width="160" height="170" as="geometry" />
        </mxCell>
        <mxCell id="-YbSp8soPqtQhwY1fTOR-28" value="id: Integer&lt;br&gt;nome: String&lt;br&gt;preco: Float&lt;br&gt;descricao: String (opcional)&lt;br&gt;imagemURL: String" style="text;html=1;align=center;verticalAlign=middle;resizable=0;points=[];autosize=1;strokeColor=none;fillColor=none;" vertex="1" parent="-YbSp8soPqtQhwY1fTOR-27">
          <mxGeometry y="26" width="160" height="90" as="geometry" />
        </mxCell>
        <mxCell id="-YbSp8soPqtQhwY1fTOR-29" value="" style="line;strokeWidth=1;fillColor=none;align=left;verticalAlign=middle;spacingTop=-1;spacingLeft=3;spacingRight=3;rotatable=0;labelPosition=right;points=[];portConstraint=eastwest;strokeColor=inherit;" vertex="1" parent="-YbSp8soPqtQhwY1fTOR-27">
          <mxGeometry y="116" width="160" height="24" as="geometry" />
        </mxCell>
        <mxCell id="-YbSp8soPqtQhwY1fTOR-30" value="obterDetalhes()" style="text;html=1;align=center;verticalAlign=middle;resizable=0;points=[];autosize=1;strokeColor=none;fillColor=none;" vertex="1" parent="-YbSp8soPqtQhwY1fTOR-27">
          <mxGeometry y="140" width="160" height="30" as="geometry" />
        </mxCell>
        <mxCell id="-YbSp8soPqtQhwY1fTOR-42" value="" style="endArrow=none;html=1;rounded=0;exitX=0.5;exitY=0;exitDx=0;exitDy=0;" edge="1" parent="1" source="-YbSp8soPqtQhwY1fTOR-27" target="-YbSp8soPqtQhwY1fTOR-22">
          <mxGeometry width="50" height="50" relative="1" as="geometry">
            <mxPoint x="420" y="280" as="sourcePoint" />
            <mxPoint x="590" y="230" as="targetPoint" />
            <Array as="points">
              <mxPoint x="590" y="260" />
            </Array>
          </mxGeometry>
        </mxCell>
        <mxCell id="-YbSp8soPqtQhwY1fTOR-45" value="" style="endArrow=none;dashed=1;html=1;dashPattern=1 3;strokeWidth=2;rounded=0;" edge="1" parent="1">
          <mxGeometry width="50" height="50" relative="1" as="geometry">
            <mxPoint x="250" y="400" as="sourcePoint" />
            <mxPoint x="590" y="290" as="targetPoint" />
            <Array as="points">
              <mxPoint x="380" y="400" />
              <mxPoint x="380" y="290" />
            </Array>
          </mxGeometry>
        </mxCell>
        <mxCell id="-YbSp8soPqtQhwY1fTOR-46" value="" style="endArrow=none;html=1;rounded=0;entryX=-0.008;entryY=0.706;entryDx=0;entryDy=0;entryPerimeter=0;" edge="1" parent="1" target="-YbSp8soPqtQhwY1fTOR-20">
          <mxGeometry width="50" height="50" relative="1" as="geometry">
            <mxPoint x="250" y="130" as="sourcePoint" />
            <mxPoint x="470" y="230" as="targetPoint" />
            <Array as="points">
              <mxPoint x="360" y="130" />
            </Array>
          </mxGeometry>
        </mxCell>
      </root>
    </mxGraphModel>
  </diagram>
</mxfile>
